<?xml version="1.0" standalone="no"?>
<!DOCTYPE svg PUBLIC "-//W3C//DTD SVG 20010904//EN"
 "http://www.w3.org/TR/2001/REC-SVG-20010904/DTD/svg10.dtd">
<svg version="1.0" xmlns="http://www.w3.org/2000/svg"
 width="186.000000pt" height="186.000000pt" viewBox="0 0 186.000000 186.000000"
 preserveAspectRatio="xMidYMid meet">
<metadata>
Created by potrace 1.14, written by Peter Selinger 2001-2017
</metadata>
<g transform="translate(0.000000,186.000000) scale(0.100000,-0.100000)"
fill="#000000" stroke="none">
<path d="M768 1844 c-99 -18 -203 -54 -284 -99 -61 -34 -197 -136 -220 -166
-10 -11 9 -50 92 -189 56 -96 103 -181 103 -189 1 -7 -17 -52 -39 -99 l-41
-86 -17 29 c-10 17 -61 110 -113 207 -52 98 -97 178 -100 178 -10 0 -65 -111
-92 -187 -93 -258 -68 -533 69 -780 16 -29 32 -53 36 -53 8 0 200 379 319 630
35 74 142 283 238 465 95 181 176 336 178 342 6 16 -28 16 -129 -3z"/>
<path d="M976 1828 c83 -165 678 -1297 712 -1356 l25 -44 28 49 c40 67 85 195
103 293 29 153 15 317 -41 473 -28 79 -72 167 -83 167 -4 0 -56 -87 -116 -194
-60 -107 -111 -193 -114 -191 -3 2 -25 41 -49 87 l-45 84 106 165 c57 90 108
170 112 177 10 17 -11 41 -102 113 -133 107 -261 165 -428 194 -128 22 -128
22 -108 -17z"/>
<path d="M874 1352 c-28 -48 -100 -170 -161 -272 -60 -102 -190 -319 -287
-484 l-178 -298 29 -30 c37 -40 145 -118 214 -157 76 -42 181 -78 285 -96 102
-18 114 -18 114 -5 0 5 -74 151 -165 325 -91 173 -165 318 -165 321 0 10 104
184 110 184 3 0 61 -88 129 -195 67 -107 127 -195 131 -195 5 0 64 88 132 195
68 107 125 194 128 194 3 1 29 -40 58 -90 l54 -91 -143 -281 c-78 -155 -153
-301 -167 -325 -13 -24 -22 -46 -19 -49 10 -10 193 26 269 52 40 14 105 44
144 66 75 43 219 158 219 175 0 12 -668 1143 -675 1144 -3 0 -28 -40 -56 -88z"/>
</g>
</svg>
